<svg width="257" height="134" viewBox="0 0 257 134" fill="none" xmlns="http://www.w3.org/2000/svg">
<path d="M11.1624 49.8135C8.23374 51.898 2.07915 57.1636 0.217826 59.5827C-1.6435 62.0017 8.84731 54.4604 15.5557 52.4348C18.9987 51.3951 22.1514 50.1888 25.6808 49.8135C29.0704 49.4532 34.3918 49.8135 34.3918 49.8135C34.3918 49.8135 39.3194 50.0435 42.4327 50.6509C46.3415 51.4135 48.4694 52.3085 52.2605 53.7212C59.1682 56.2952 69.4591 62.0947 69.4591 62.0947C75.9366 66.1884 100.506 80.0889 106.537 82.4703C112.567 84.8517 124.503 88.7462 136.244 88.3317C142.484 88.1115 152.102 85.8197 152.102 85.8197C156.42 84.9823 168.159 81.7635 173.321 82.1912C178.483 82.6188 188.51 89.1691 201.018 81.0747C213.526 72.9803 215.983 62.2432 215.536 62.653C215.089 63.0627 206.332 67.3474 199.563 65.058C197.671 64.4181 195.679 64.087 192.766 62.653C189.853 61.2189 186.859 56.7654 182.57 56.3188C178.282 55.8723 170.79 56.6054 169.524 57.9079L169.546 57.8751C171.186 55.4541 173.791 51.6071 173.321 45.0685C172.849 38.5004 171.404 33.0145 168.407 29.438C165.411 25.8614 164.606 16.0217 167.034 9.71014C169.462 3.39855 169.152 4.3174 171.311 0.130641C171.534 -0.334555 169.658 0.186465 160.366 5.99211C148.752 13.2492 148.107 30.4238 148.752 37.2533C149.397 44.0827 151.797 53.4931 148.752 62.653C148.033 64.8142 147.673 66.1135 146.518 67.9562C143.752 72.3699 140.532 73.0361 136.244 74.3759C132.491 75.7156 123.214 72.8873 119.045 71.3056C103.037 63.3042 69.6825 46.8549 64.3219 45.0685C58.9613 43.2822 54.2958 42.1467 48.9101 41.7191C43.5245 41.2915 32.6942 41.9424 28.5844 42.8356C23.4472 43.9521 14.0911 47.7291 11.1624 49.8135Z" fill="#003AA9"/>
<path d="M7.31987 108.232L4.54487 68.2319H5.20737L7.89487 107.669H12.5574L15.2699 70.7069H17.0949L19.7949 107.669H24.4699L27.1824 68.2319H27.8449L25.0574 108.232H19.2199L16.5074 71.2694H15.8449L13.1449 108.232H7.31987ZM8.36987 107.119L7.25737 89.3944L5.86987 68.2319H6.55737L7.89487 88.9694L8.95737 106.557H11.5074L12.6699 89.1319L14.1449 69.5944H18.2074L19.6949 89.1694L20.8324 106.557H23.4199L24.4824 89.0444L25.8324 68.2319H26.5074L25.1074 89.4694L24.0074 107.119H20.2574L19.1199 89.6569L17.6449 70.1569H14.7199L13.2449 89.6319L12.1074 107.119H8.36987ZM9.43237 106.007L8.45737 88.6069L7.16987 68.2319H7.81987L9.04487 88.2569L9.96987 105.444H10.4949L11.5449 88.2444L12.9449 68.4819H19.4074L20.8074 88.3069L21.8699 105.444H22.3949L23.3199 88.3694L24.5449 68.2319H25.2074L23.9074 88.6694L22.9324 106.007H21.3199L20.2574 88.7319L18.8449 69.0444H13.5074L12.1199 88.6444L11.0449 106.007H9.43237ZM44.746 108.232V84.4569C44.746 83.1819 44.6002 82.0985 44.3085 81.2069C44.0252 80.3152 43.521 79.636 42.796 79.1694C42.0794 78.7027 41.0669 78.4694 39.7585 78.4694C38.5752 78.4694 37.5544 78.7485 36.696 79.3069C35.8377 79.8652 35.1502 80.6652 34.6335 81.7069H34.4585L34.746 75.4944V68.2319H35.421V73.4319L34.9835 80.5194H35.1085C35.6169 79.686 36.2794 79.0402 37.096 78.5819C37.9127 78.1152 38.8585 77.8819 39.9335 77.8819C41.3752 77.8819 42.4877 78.136 43.271 78.6444C44.0627 79.1444 44.6169 79.8777 44.9335 80.8444C45.2502 81.8027 45.4085 82.9694 45.4085 84.3444V108.232H44.746ZM32.1835 108.232V68.2319H32.846V108.232H32.1835ZM34.8335 108.232V84.9319C34.8335 84.1485 34.9919 83.4069 35.3085 82.7069C35.6335 81.9985 36.121 81.4235 36.771 80.9819C37.4294 80.5402 38.2585 80.3194 39.2585 80.3194C40.6419 80.3194 41.571 80.6985 42.046 81.4569C42.5294 82.2069 42.771 83.2777 42.771 84.6694V108.232H42.1085V84.7069C42.1085 83.5319 41.9127 82.6069 41.521 81.9319C41.1294 81.2485 40.346 80.9069 39.171 80.9069C38.346 80.9069 37.6627 81.0944 37.121 81.4694C36.5794 81.8444 36.1752 82.336 35.9085 82.9444C35.6502 83.5444 35.521 84.1944 35.521 84.8944V108.232H34.8335ZM33.5085 108.232V68.2319H34.146V78.1069L34.021 83.2569H34.196C34.6127 81.9569 35.2794 80.9319 36.196 80.1819C37.1127 79.4319 38.246 79.0652 39.596 79.0819C41.4044 79.0902 42.6044 79.5777 43.196 80.5444C43.7877 81.5027 44.0835 82.8194 44.0835 84.4944V108.232H43.421V84.5694C43.421 82.9944 43.1419 81.786 42.5835 80.9444C42.0335 80.0944 40.971 79.6694 39.396 79.6694C38.221 79.6694 37.246 79.9444 36.471 80.4944C35.7044 81.0444 35.1294 81.7319 34.746 82.5569C34.3627 83.3735 34.171 84.186 34.171 84.9944V108.232H33.5085ZM62.1882 108.232V84.4944C62.1882 82.336 61.7716 80.7902 60.9382 79.8569C60.1132 78.9152 58.7466 78.4444 56.8382 78.4444C54.8632 78.4444 53.4299 78.8694 52.5382 79.7194C51.6549 80.5694 51.1757 81.9777 51.1007 83.9444C51.0757 84.6194 51.0674 85.3527 51.0757 86.1444C51.0924 86.9277 51.1174 87.6985 51.1507 88.4569H50.4882C50.4549 87.6735 50.4299 86.8985 50.4132 86.1319C50.4049 85.3652 50.4132 84.6277 50.4382 83.9194C50.5132 81.7694 51.0466 80.2277 52.0382 79.2944C53.0382 78.361 54.6382 77.8944 56.8382 77.8944C58.2716 77.8944 59.4257 78.1194 60.3007 78.5694C61.1841 79.011 61.8299 79.7152 62.2382 80.6819C62.6466 81.6485 62.8507 82.9194 62.8507 84.4944V108.232H62.1882ZM55.7007 106.932C56.7924 106.932 57.7174 106.649 58.4757 106.082C59.2424 105.515 59.8257 104.811 60.2257 103.969C60.6341 103.119 60.8382 102.286 60.8382 101.469V91.5069C60.1049 91.7819 59.2924 92.1194 58.4007 92.5194C57.5174 92.9194 56.6799 93.336 55.8882 93.7694C54.5466 94.536 53.5632 95.4444 52.9382 96.4944C52.3132 97.536 51.9674 98.8985 51.9007 100.582C51.8841 100.965 51.8841 101.328 51.9007 101.669C51.9174 102.011 51.9382 102.369 51.9632 102.744C52.0466 104.128 52.4174 105.174 53.0757 105.882C53.7424 106.582 54.6174 106.932 55.7007 106.932ZM55.8382 106.344C54.8632 106.344 54.1091 106.011 53.5757 105.344C53.0424 104.669 52.7257 103.79 52.6257 102.707C52.5924 102.29 52.5716 101.907 52.5632 101.557C52.5549 101.207 52.5549 100.899 52.5632 100.632C52.6299 99.0652 52.9382 97.7985 53.4882 96.8319C54.0466 95.8569 54.9257 95.0069 56.1257 94.2819C56.7007 93.9319 57.3466 93.5777 58.0632 93.2194C58.7799 92.8527 59.4841 92.5235 60.1757 92.2319V101.532C60.1757 102.315 60.0216 103.078 59.7132 103.819C59.4049 104.553 58.9299 105.157 58.2882 105.632C57.6549 106.107 56.8382 106.344 55.8382 106.344ZM55.9257 105.807C56.7507 105.807 57.4299 105.599 57.9632 105.182C58.4966 104.765 58.8882 104.236 59.1382 103.594C59.3882 102.944 59.5132 102.269 59.5132 101.569V92.9944C58.9632 93.261 58.4299 93.5402 57.9132 93.8319C57.3966 94.1152 56.8799 94.4319 56.3632 94.7819C55.2966 95.4902 54.5174 96.2777 54.0257 97.1444C53.5341 98.0027 53.2674 99.161 53.2257 100.619C53.2174 100.928 53.2174 101.253 53.2257 101.594C53.2341 101.928 53.2507 102.274 53.2757 102.632C53.3424 103.549 53.5966 104.307 54.0382 104.907C54.4882 105.507 55.1174 105.807 55.9257 105.807ZM55.1632 108.582C53.5966 108.582 52.3674 108.086 51.4757 107.094C50.5924 106.094 50.0924 104.694 49.9757 102.894C49.9424 102.403 49.9216 101.932 49.9132 101.482C49.9049 101.032 49.9091 100.657 49.9257 100.357C50.0257 98.5819 50.4466 97.0444 51.1882 95.7444C51.9382 94.4444 53.2507 93.2735 55.1257 92.2319C55.7007 91.9069 56.2216 91.6152 56.6882 91.3569C57.1632 91.0985 57.6299 90.861 58.0882 90.6444C58.5466 90.4277 59.0299 90.2194 59.5382 90.0194V84.4944C59.5382 83.2777 59.3549 82.336 58.9882 81.6694C58.6299 81.0027 57.9132 80.6694 56.8382 80.6694C55.7382 80.6694 54.9591 80.9444 54.5007 81.4944C54.0424 82.036 53.7924 82.8902 53.7507 84.0569C53.7341 84.5902 53.7257 85.2194 53.7257 85.9444C53.7341 86.661 53.7549 87.4985 53.7882 88.4569H53.1257C53.0924 87.4569 53.0716 86.611 53.0632 85.9194C53.0632 85.2277 53.0716 84.5902 53.0882 84.0069C53.1382 82.6069 53.4549 81.611 54.0382 81.0194C54.6299 80.4194 55.5632 80.1194 56.8382 80.1194C58.1382 80.1194 59.0216 80.4902 59.4882 81.2319C59.9632 81.9735 60.2007 83.061 60.2007 84.4944V90.4694C59.3091 90.8027 58.4632 91.1652 57.6632 91.5569C56.8632 91.9485 56.0966 92.3485 55.3632 92.7569C53.6132 93.7152 52.4007 94.811 51.7257 96.0444C51.0591 97.2777 50.6799 98.7319 50.5882 100.407C50.5716 100.815 50.5674 101.211 50.5757 101.594C50.5841 101.969 50.6049 102.386 50.6382 102.844C50.7466 104.519 51.2049 105.803 52.0132 106.694C52.8299 107.586 53.9382 108.032 55.3382 108.032C56.5549 108.032 57.5882 107.728 58.4382 107.119C59.2966 106.511 59.9507 105.724 60.4007 104.757H60.5507L60.2757 107.644V108.232H59.6007V108.007L60.0007 105.944H59.8757C59.3591 106.778 58.7091 107.428 57.9257 107.894C57.1424 108.353 56.2216 108.582 55.1632 108.582ZM60.8632 108.232V106.632L60.9882 103.207H60.8382C60.4632 104.407 59.8257 105.419 58.9257 106.244C58.0341 107.069 56.8924 107.482 55.5007 107.482C54.2674 107.482 53.2841 107.082 52.5507 106.282C51.8174 105.474 51.4007 104.315 51.3007 102.807C51.2674 102.332 51.2466 101.915 51.2382 101.557C51.2299 101.19 51.2341 100.824 51.2507 100.457C51.3341 98.8735 51.6799 97.4985 52.2882 96.3319C52.9049 95.1652 54.0174 94.1444 55.6257 93.2694C56.2091 92.9527 56.8132 92.6485 57.4382 92.3569C58.0716 92.0652 58.6841 91.7985 59.2757 91.5569C59.8757 91.3069 60.4049 91.1027 60.8632 90.9444V84.4944C60.8632 82.7277 60.5507 81.4652 59.9257 80.7069C59.3091 79.9402 58.2799 79.5569 56.8382 79.5569C55.3216 79.5569 54.2216 79.8985 53.5382 80.5819C52.8549 81.2652 52.4841 82.4027 52.4257 83.9944C52.4007 84.6694 52.3924 85.3985 52.4007 86.1819C52.4174 86.9652 52.4382 87.7235 52.4632 88.4569H51.8132C51.7799 87.7069 51.7549 86.936 51.7382 86.1444C51.7299 85.3444 51.7382 84.6194 51.7632 83.9694C51.8299 82.1944 52.2549 80.9235 53.0382 80.1569C53.8216 79.3902 55.0882 79.0069 56.8382 79.0069C58.5132 79.0069 59.7132 79.4319 60.4382 80.2819C61.1632 81.1319 61.5257 82.536 61.5257 84.4944V108.232H60.8632ZM70.8199 108.232V68.2319H71.4824V108.232H70.8199ZM68.1699 108.232V68.2319H68.8324V108.232H68.1699ZM69.4949 108.232V68.2319H70.1574V108.232H69.4949ZM83.0714 108.569C80.9131 108.569 79.3089 108.124 78.2589 107.232C77.2173 106.332 76.6589 104.757 76.5839 102.507C76.5506 101.282 76.5214 99.8902 76.4964 98.3319C76.4798 96.7652 76.4714 95.1402 76.4714 93.4569C76.4714 91.7735 76.4798 90.1194 76.4964 88.4944C76.5214 86.8694 76.5548 85.3819 76.5964 84.0319C76.6714 81.8569 77.2048 80.2902 78.1964 79.3319C79.1964 78.3735 80.8131 77.8944 83.0464 77.8944C85.1131 77.8944 86.6464 78.3444 87.6464 79.2444C88.6548 80.1444 89.2048 81.711 89.2964 83.9444C89.3214 84.386 89.3381 84.961 89.3464 85.6694C89.3631 86.3694 89.3714 87.1694 89.3714 88.0694C89.3714 88.9694 89.3631 89.9444 89.3464 90.9944C89.3298 92.036 89.2964 93.1152 89.2464 94.2319H79.7839C79.7839 95.2069 79.7881 96.1569 79.7964 97.0819C79.8048 97.9985 79.8173 98.8902 79.8339 99.7569C79.8506 100.624 79.8714 101.469 79.8964 102.294C79.9381 103.586 80.1881 104.494 80.6464 105.019C81.1048 105.536 81.9131 105.794 83.0714 105.794C84.1381 105.794 84.8756 105.553 85.2839 105.069C85.6923 104.586 85.9256 103.678 85.9839 102.344C86.0089 101.811 86.0173 101.161 86.0089 100.394C86.0006 99.6277 85.9756 98.8069 85.9339 97.9319H86.5964C86.6381 98.8485 86.6631 99.6777 86.6714 100.419C86.6798 101.161 86.6714 101.815 86.6464 102.382C86.5881 103.89 86.2964 104.928 85.7714 105.494C85.2464 106.061 84.3464 106.344 83.0714 106.344C81.6964 106.344 80.7214 106.049 80.1464 105.457C79.5714 104.865 79.2631 103.828 79.2214 102.344C79.2048 101.611 79.1881 100.744 79.1714 99.7444C79.1548 98.736 79.1423 97.7027 79.1339 96.6444C79.1256 95.5777 79.1214 94.5902 79.1214 93.6819H88.6214C88.6548 92.6485 88.6756 91.6444 88.6839 90.6694C88.7006 89.686 88.7089 88.7694 88.7089 87.9194C88.7089 87.0694 88.7006 86.3069 88.6839 85.6319C88.6756 84.9569 88.6589 84.3985 88.6339 83.9569C88.5423 81.8652 88.0339 80.4235 87.1089 79.6319C86.1839 78.8402 84.8298 78.4444 83.0464 78.4444C80.9964 78.4444 79.5339 78.8944 78.6589 79.7944C77.7923 80.686 77.3256 82.111 77.2589 84.0694C77.2173 85.436 77.1839 86.9235 77.1589 88.5319C77.1423 90.1319 77.1339 91.761 77.1339 93.4194C77.1339 95.0777 77.1423 96.6819 77.1589 98.2319C77.1839 99.7819 77.2131 101.19 77.2464 102.457C77.3131 104.515 77.8089 105.957 78.7339 106.782C79.6589 107.607 81.1048 108.019 83.0714 108.019C85.0131 108.019 86.4006 107.603 87.2339 106.769C88.0756 105.936 88.5423 104.503 88.6339 102.469C88.6506 102.103 88.6589 101.674 88.6589 101.182C88.6673 100.69 88.6631 100.169 88.6464 99.6194C88.6381 99.061 88.6173 98.4985 88.5839 97.9319H89.2464C89.2881 98.6985 89.3131 99.4902 89.3214 100.307C89.3381 101.124 89.3298 101.857 89.2964 102.507C89.2048 104.699 88.6839 106.257 87.7339 107.182C86.7923 108.107 85.2381 108.569 83.0714 108.569ZM83.0714 107.457C81.2881 107.457 79.9964 107.082 79.1964 106.332C78.3964 105.582 77.9673 104.282 77.9089 102.432C77.8673 101.09 77.8381 99.6194 77.8214 98.0194C77.8048 96.411 77.7964 94.7735 77.7964 93.1069C77.7964 91.4319 77.8048 89.8194 77.8214 88.2694C77.8464 86.7194 77.8756 85.336 77.9089 84.1194C77.9756 82.2194 78.4173 80.8944 79.2339 80.1444C80.0589 79.386 81.3298 79.0069 83.0464 79.0069C84.6464 79.0069 85.8464 79.361 86.6464 80.0694C87.4548 80.7777 87.8964 82.0819 87.9714 83.9819C87.9964 84.4735 88.0173 85.1735 88.0339 86.0819C88.0506 86.9819 88.0548 88.036 88.0464 89.2444C88.0381 90.4444 88.0131 91.736 87.9714 93.1194H78.4589C78.4589 94.886 78.4631 96.461 78.4714 97.8444C78.4881 99.2277 78.5089 100.74 78.5339 102.382C78.5589 104.015 78.9048 105.178 79.5714 105.869C80.2464 106.561 81.4131 106.907 83.0714 106.907C84.5548 106.907 85.6131 106.586 86.2464 105.944C86.8798 105.294 87.2339 104.119 87.3089 102.419C87.3339 101.853 87.3423 101.186 87.3339 100.419C87.3256 99.6444 87.3006 98.8152 87.2589 97.9319H87.9214C87.9631 98.7735 87.9881 99.586 87.9964 100.369C88.0048 101.153 87.9964 101.844 87.9714 102.444C87.8881 104.311 87.4839 105.615 86.7589 106.357C86.0339 107.09 84.8048 107.457 83.0714 107.457ZM78.4589 92.5694H87.3214C87.3548 91.361 87.3714 90.1944 87.3714 89.0694C87.3798 87.9444 87.3756 86.9402 87.3589 86.0569C87.3506 85.1652 87.3339 84.4819 87.3089 84.0069C87.2423 82.3319 86.8673 81.1735 86.1839 80.5319C85.5089 79.8819 84.4631 79.5569 83.0464 79.5569C81.5381 79.5569 80.4256 79.8944 79.7089 80.5694C79.0006 81.236 78.6214 82.4277 78.5714 84.1444C78.5381 85.1277 78.5131 86.3944 78.4964 87.9444C78.4798 89.4944 78.4673 91.036 78.4589 92.5694ZM79.1214 92.0069C79.1298 91.2652 79.1339 90.4652 79.1339 89.6069C79.1423 88.7402 79.1548 87.8485 79.1714 86.9319C79.1881 86.0069 79.2089 85.0902 79.2339 84.1819C79.2839 82.6652 79.6006 81.611 80.1839 81.0194C80.7756 80.4194 81.7298 80.1194 83.0464 80.1194C84.2964 80.1194 85.1923 80.411 85.7339 80.9944C86.2839 81.5694 86.5881 82.586 86.6464 84.0444C86.6631 84.4527 86.6798 85.0485 86.6964 85.8319C86.7131 86.6069 86.7173 87.5235 86.7089 88.5819C86.7089 89.6319 86.6923 90.7735 86.6589 92.0069H79.1214ZM79.7964 91.4569H86.0089C86.0339 90.3652 86.0464 89.3277 86.0464 88.3444C86.0548 87.361 86.0506 86.4985 86.0339 85.7569C86.0173 85.0069 86.0006 84.4444 85.9839 84.0694C85.9256 82.7777 85.6714 81.8902 85.2214 81.4069C84.7798 80.9152 84.0548 80.6694 83.0464 80.6694C81.9298 80.6694 81.1339 80.9277 80.6589 81.4444C80.1923 81.961 79.9381 82.8819 79.8964 84.2069C79.8798 84.9319 79.8631 85.6777 79.8464 86.4444C79.8298 87.211 79.8173 88.011 79.8089 88.8444C79.8006 89.6694 79.7964 90.5402 79.7964 91.4569Z" fill="white"/>
<path d="M98.4649 118.42H93.9949V97.0003H106.265V100.72H98.4649V106.24H105.725V109.96H98.4649V118.42ZM118.47 118.42H108.72V115.84L111.33 114.64V100.78L108.72 99.5803V97.0003H118.47V99.5803L115.86 100.78V114.64L118.47 115.84V118.42ZM130.37 118.42H125.84V100.78H120.02V97.0003H136.19V100.78H130.37V118.42ZM158.483 118.42H152.723L143.393 102.22H143.273C143.293 102.72 143.313 103.23 143.333 103.75C143.353 104.25 143.373 104.76 143.393 105.28C143.433 105.78 143.463 106.29 143.483 106.81C143.503 107.31 143.523 107.82 143.543 108.34V118.42H139.493V97.0003H145.223L154.523 113.05H154.613C154.593 112.55 154.573 112.06 154.553 111.58C154.533 111.08 154.513 110.59 154.493 110.11C154.493 109.61 154.483 109.12 154.463 108.64C154.443 108.14 154.423 107.64 154.403 107.14V97.0003H158.483V118.42ZM176.227 118.42H163.897V97.0003H176.227V100.72H168.427V105.43H175.687V109.15H168.427V114.67H176.227V118.42ZM193.314 112.48C193.314 113.74 193.004 114.84 192.384 115.78C191.764 116.72 190.864 117.45 189.684 117.97C188.524 118.47 187.104 118.72 185.424 118.72C184.684 118.72 183.954 118.67 183.234 118.57C182.534 118.47 181.854 118.33 181.194 118.15C180.554 117.95 179.944 117.71 179.364 117.43V113.2C180.384 113.64 181.434 114.05 182.514 114.43C183.614 114.79 184.704 114.97 185.784 114.97C186.524 114.97 187.114 114.87 187.554 114.67C188.014 114.47 188.344 114.2 188.544 113.86C188.764 113.52 188.874 113.13 188.874 112.69C188.874 112.15 188.684 111.69 188.304 111.31C187.944 110.93 187.454 110.58 186.834 110.26C186.214 109.92 185.504 109.56 184.704 109.18C184.204 108.94 183.664 108.66 183.084 108.34C182.504 108 181.944 107.59 181.404 107.11C180.884 106.61 180.454 106.01 180.114 105.31C179.774 104.61 179.604 103.77 179.604 102.79C179.604 101.51 179.894 100.42 180.474 99.5203C181.074 98.6003 181.914 97.9003 182.994 97.4203C184.094 96.9403 185.384 96.7003 186.864 96.7003C187.984 96.7003 189.044 96.8303 190.044 97.0903C191.064 97.3503 192.124 97.7203 193.224 98.2003L191.754 101.74C190.774 101.34 189.894 101.03 189.114 100.81C188.334 100.59 187.534 100.48 186.714 100.48C186.154 100.48 185.674 100.57 185.274 100.75C184.874 100.93 184.564 101.18 184.344 101.5C184.144 101.82 184.044 102.2 184.044 102.64C184.044 103.14 184.194 103.57 184.494 103.93C184.794 104.27 185.244 104.6 185.844 104.92C186.444 105.24 187.194 105.62 188.094 106.06C189.194 106.58 190.124 107.12 190.884 107.68C191.664 108.24 192.264 108.9 192.684 109.66C193.104 110.42 193.314 111.36 193.314 112.48ZM209.838 112.48C209.838 113.74 209.528 114.84 208.908 115.78C208.288 116.72 207.388 117.45 206.208 117.97C205.048 118.47 203.628 118.72 201.948 118.72C201.208 118.72 200.478 118.67 199.758 118.57C199.058 118.47 198.378 118.33 197.718 118.15C197.078 117.95 196.468 117.71 195.888 117.43V113.2C196.908 113.64 197.958 114.05 199.038 114.43C200.138 114.79 201.228 114.97 202.308 114.97C203.048 114.97 203.638 114.87 204.078 114.67C204.538 114.47 204.868 114.2 205.068 113.86C205.288 113.52 205.398 113.13 205.398 112.69C205.398 112.15 205.208 111.69 204.828 111.31C204.468 110.93 203.978 110.58 203.358 110.26C202.738 109.92 202.028 109.56 201.228 109.18C200.728 108.94 200.188 108.66 199.608 108.34C199.028 108 198.468 107.59 197.928 107.11C197.408 106.61 196.978 106.01 196.638 105.31C196.298 104.61 196.128 103.77 196.128 102.79C196.128 101.51 196.418 100.42 196.998 99.5203C197.598 98.6003 198.438 97.9003 199.518 97.4203C200.618 96.9403 201.908 96.7003 203.388 96.7003C204.508 96.7003 205.568 96.8303 206.568 97.0903C207.588 97.3503 208.648 97.7203 209.748 98.2003L208.278 101.74C207.298 101.34 206.418 101.03 205.638 100.81C204.858 100.59 204.058 100.48 203.238 100.48C202.678 100.48 202.198 100.57 201.798 100.75C201.398 100.93 201.088 101.18 200.868 101.5C200.668 101.82 200.568 102.2 200.568 102.64C200.568 103.14 200.718 103.57 201.018 103.93C201.318 104.27 201.768 104.6 202.368 104.92C202.968 105.24 203.718 105.62 204.618 106.06C205.718 106.58 206.648 107.12 207.408 107.68C208.188 108.24 208.788 108.9 209.208 109.66C209.628 110.42 209.838 111.36 209.838 112.48Z" fill="white"/>
</svg>
