<svg width="186" height="45" viewBox="0 0 186 45" fill="none" xmlns="http://www.w3.org/2000/svg">
<path d="M2.6775 34.5L1.05 10.5H1.5225L3.105 34.11H7.0125L8.67 12.18H10.455L12.0975 34.11H15.9975L17.6325 10.5H18.105L16.4325 34.5H11.685L10.0425 12.57H9.0825L7.425 34.5H2.6775ZM3.4425 33.72L2.8275 23.49L2.0025 10.5H2.49L3.285 23.1375L3.885 33.3225H6.24L6.93 23.25L7.86 11.3925H11.265L12.195 23.4075L12.8625 33.3225H15.2175L15.8325 23.34L16.665 10.5H17.145L16.2825 23.685L15.66 33.72H12.45L11.7825 23.76L10.8675 11.79H8.265L7.335 23.6325L6.6525 33.72H3.4425ZM4.2375 32.9325L3.69 22.875L2.9325 10.5H3.405L4.125 22.6125L4.635 32.5425H5.4825L6.1125 22.635L6.99 10.6125H12.135L13.0125 22.8L13.6275 32.5425H14.4675L14.9925 22.77L15.7425 10.5H16.215L15.42 23.055L14.8725 32.9325H13.2375L12.615 23.1L11.73 11.0025H7.395L6.5175 22.9425L5.8725 32.9325H4.2375ZM29.6677 34.5V20.5575C29.6677 19.7225 29.5677 19.0175 29.3677 18.4425C29.1727 17.8625 28.8302 17.4225 28.3402 17.1225C27.8552 16.8225 27.1777 16.6725 26.3077 16.6725C25.4327 16.6725 24.6802 16.8575 24.0502 17.2275C23.4202 17.5925 22.9252 18.105 22.5652 18.765H22.4602L22.6927 15.1275V10.5H23.1727V14.5425L22.8277 17.8575H22.9252C23.3352 17.2975 23.8402 16.8925 24.4402 16.6425C25.0402 16.3925 25.7027 16.2675 26.4277 16.2675C27.3927 16.2675 28.1427 16.4325 28.6777 16.7625C29.2177 17.0875 29.5952 17.565 29.8102 18.195C30.0302 18.82 30.1402 19.585 30.1402 20.49V34.5H29.6677ZM20.8252 34.5V10.5H21.3052V34.5H20.8252ZM22.7302 34.5V21C22.7302 20.45 22.8627 19.9425 23.1277 19.4775C23.3977 19.0075 23.7727 18.63 24.2527 18.345C24.7377 18.06 25.3002 17.9175 25.9402 17.9175C26.8452 17.9175 27.4552 18.1575 27.7702 18.6375C28.0902 19.1175 28.2502 19.8 28.2502 20.685V34.5H27.7777V20.7075C27.7777 19.9625 27.6502 19.3775 27.3952 18.9525C27.1402 18.5275 26.6352 18.315 25.8802 18.315C25.3802 18.315 24.9277 18.4325 24.5227 18.6675C24.1227 18.8975 23.8052 19.2125 23.5702 19.6125C23.3402 20.0125 23.2252 20.465 23.2252 20.97L23.2027 34.5H22.7302ZM21.7777 34.5V10.5H22.2502V15.7275L22.1452 19.8525H22.2652C22.5602 18.9875 23.0452 18.31 23.7202 17.82C24.3952 17.325 25.2127 17.08 26.1727 17.085C27.3577 17.09 28.1577 17.395 28.5727 18C28.9877 18.6 29.1952 19.46 29.1952 20.58V34.5H28.7227V20.625C28.7227 19.615 28.5352 18.84 28.1602 18.3C27.7902 17.755 27.0852 17.4825 26.0452 17.4825C25.2702 17.4825 24.6002 17.655 24.0352 18C23.4702 18.34 23.0327 18.78 22.7227 19.32C22.4177 19.855 22.2652 20.4225 22.2652 21.0225V34.5H21.7777ZM41.351 34.5V20.6775C41.351 19.3675 41.0885 18.37 40.5635 17.685C40.0435 17 39.066 16.6575 37.631 16.6575C36.396 16.6575 35.441 16.905 34.766 17.4C34.091 17.89 33.726 18.795 33.671 20.115C33.651 20.575 33.641 21.0175 33.641 21.4425C33.646 21.8675 33.6635 22.305 33.6935 22.755H33.221C33.191 22.255 33.1735 21.8 33.1685 21.39C33.1635 20.98 33.171 20.55 33.191 20.1C33.251 18.74 33.6285 17.7625 34.3235 17.1675C35.0185 16.5725 36.121 16.275 37.631 16.275C38.731 16.275 39.5835 16.4475 40.1885 16.7925C40.7985 17.1375 41.2235 17.64 41.4635 18.3C41.7035 18.955 41.8235 19.7475 41.8235 20.6775V34.5H41.351ZM36.731 33.585C37.491 33.585 38.1435 33.405 38.6885 33.045C39.2385 32.685 39.6585 32.2275 39.9485 31.6725C40.2435 31.1125 40.391 30.5375 40.391 29.9475V24.6C39.771 24.79 39.1435 25 38.5085 25.23C37.8785 25.46 37.346 25.6825 36.911 25.8975C36.051 26.3275 35.406 26.835 34.976 27.42C34.551 28.005 34.3085 28.79 34.2485 29.775C34.2335 30.03 34.2285 30.255 34.2335 30.45C34.2385 30.645 34.251 30.86 34.271 31.095C34.346 31.87 34.5935 32.48 35.0135 32.925C35.4385 33.365 36.011 33.585 36.731 33.585ZM36.8135 33.18C36.1985 33.18 35.711 32.985 35.351 32.595C34.996 32.205 34.791 31.685 34.736 31.035C34.721 30.85 34.711 30.655 34.706 30.45C34.706 30.245 34.711 30.0375 34.721 29.8275C34.766 28.8925 34.9835 28.1625 35.3735 27.6375C35.7685 27.1125 36.3385 26.6575 37.0835 26.2725C37.5685 26.0275 38.0335 25.815 38.4785 25.635C38.9235 25.45 39.401 25.28 39.911 25.125V29.9775C39.911 30.5275 39.786 31.0475 39.536 31.5375C39.286 32.0225 38.9285 32.4175 38.4635 32.7225C38.0035 33.0275 37.4535 33.18 36.8135 33.18ZM36.8585 32.8125C37.3635 32.8125 37.8085 32.685 38.1935 32.43C38.5835 32.17 38.8885 31.8275 39.1085 31.4025C39.3285 30.9725 39.4385 30.51 39.4385 30.015V25.65C39.0685 25.79 38.711 25.94 38.366 26.1C38.021 26.255 37.6585 26.4325 37.2785 26.6325C36.5485 27.0175 36.026 27.45 35.711 27.93C35.396 28.41 35.2235 29.05 35.1935 29.85C35.1885 30.045 35.186 30.24 35.186 30.435C35.191 30.63 35.201 30.8175 35.216 30.9975C35.256 31.5325 35.4185 31.97 35.7035 32.31C35.9885 32.645 36.3735 32.8125 36.8585 32.8125ZM36.4085 34.71C35.3885 34.71 34.561 34.405 33.926 33.795C33.296 33.185 32.936 32.315 32.846 31.185C32.826 30.925 32.8135 30.675 32.8085 30.435C32.8085 30.19 32.8135 29.9325 32.8235 29.6625C32.8885 28.5175 33.191 27.565 33.731 26.805C34.276 26.045 35.156 25.3725 36.371 24.7875C36.666 24.6425 36.9635 24.505 37.2635 24.375C37.5685 24.245 37.8985 24.1125 38.2535 23.9775C38.6085 23.8425 39.006 23.7025 39.446 23.5575V20.6775C39.446 19.9125 39.3185 19.305 39.0635 18.855C38.8085 18.405 38.331 18.18 37.631 18.18C36.936 18.18 36.4235 18.35 36.0935 18.69C35.7685 19.025 35.591 19.5425 35.561 20.2425C35.551 20.5075 35.546 20.8725 35.546 21.3375C35.546 21.7975 35.556 22.27 35.576 22.755H35.1035C35.0835 22.305 35.0735 21.8475 35.0735 21.3825C35.0735 20.9125 35.0785 20.525 35.0885 20.22C35.1235 19.345 35.351 18.7225 35.771 18.3525C36.196 17.9825 36.816 17.7975 37.631 17.7975C38.541 17.7975 39.151 18.06 39.461 18.585C39.771 19.11 39.926 19.8075 39.926 20.6775V23.88C39.301 24.085 38.691 24.3 38.096 24.525C37.501 24.745 36.986 24.955 36.551 25.155C35.501 25.65 34.706 26.26 34.166 26.985C33.631 27.705 33.3435 28.6075 33.3035 29.6925C33.2935 29.9375 33.2885 30.18 33.2885 30.42C33.2885 30.655 33.2985 30.8975 33.3185 31.1475C33.3985 32.1425 33.716 32.9225 34.271 33.4875C34.826 34.0525 35.5735 34.335 36.5135 34.335C37.3985 34.335 38.126 34.145 38.696 33.765C39.266 33.385 39.7335 32.87 40.0985 32.22H40.2035L39.956 33.8625V34.5H39.491L39.4835 34.1925L39.7985 33.1275H39.701C39.301 33.6825 38.8335 34.085 38.2985 34.335C37.7635 34.585 37.1335 34.71 36.4085 34.71ZM40.3985 34.5V33.1575L40.5185 31.125H40.406C40.106 31.985 39.636 32.6725 38.996 33.1875C38.356 33.7025 37.561 33.96 36.611 33.96C35.811 33.96 35.1585 33.71 34.6535 33.21C34.1535 32.71 33.866 32.015 33.791 31.125C33.776 30.88 33.766 30.65 33.761 30.435C33.761 30.215 33.766 29.9775 33.776 29.7225C33.826 28.6775 34.081 27.835 34.541 27.195C35.006 26.555 35.7385 25.9975 36.7385 25.5225C37.0335 25.3825 37.3835 25.235 37.7885 25.08C38.1935 24.92 38.621 24.765 39.071 24.615C39.521 24.46 39.966 24.32 40.406 24.195V20.6775C40.406 19.6775 40.2185 18.885 39.8435 18.3C39.4685 17.715 38.731 17.4225 37.631 17.4225C36.636 17.4225 35.8935 17.635 35.4035 18.06C34.9135 18.485 34.6485 19.2 34.6085 20.205C34.5985 20.505 34.5935 20.8875 34.5935 21.3525C34.5935 21.8175 34.6085 22.285 34.6385 22.755H34.166C34.141 22.315 34.126 21.86 34.121 21.39C34.116 20.92 34.121 20.5225 34.136 20.1975C34.181 19.0825 34.476 18.2775 35.021 17.7825C35.571 17.2825 36.441 17.0325 37.631 17.0325C38.876 17.0325 39.726 17.3475 40.181 17.9775C40.641 18.6025 40.871 19.5025 40.871 20.6775V34.5H40.3985ZM46.988 34.5V10.5H47.4605V34.5H46.988ZM45.083 34.5V10.5H45.563V34.5H45.083ZM46.0355 34.5V10.5H46.508V34.5H46.0355ZM55.0784 34.725C53.5934 34.725 52.4834 34.435 51.7484 33.855C51.0134 33.275 50.6159 32.2725 50.5559 30.8475C50.5259 29.9575 50.5034 29.0525 50.4884 28.1325C50.4734 27.2075 50.4659 26.285 50.4659 25.365C50.4659 24.445 50.4734 23.5475 50.4884 22.6725C50.5084 21.7975 50.5309 20.97 50.5559 20.19C50.6259 18.75 51.0234 17.7375 51.7484 17.1525C52.4784 16.5675 53.5809 16.275 55.0559 16.275C56.5459 16.275 57.6334 16.5725 58.3184 17.1675C59.0034 17.7575 59.3784 18.75 59.4434 20.145C59.4534 20.295 59.4609 20.595 59.4659 21.045C59.4709 21.49 59.4734 22.02 59.4734 22.635C59.4784 23.245 59.4759 23.8725 59.4659 24.5175C59.4559 25.1625 59.4359 25.755 59.4059 26.295H52.8509C52.8559 26.825 52.8609 27.3325 52.8659 27.8175C52.8709 28.3025 52.8784 28.78 52.8884 29.25C52.8984 29.72 52.9109 30.2025 52.9259 30.6975C52.9559 31.4525 53.1359 31.995 53.4659 32.325C53.8009 32.655 54.3384 32.82 55.0784 32.82C55.7084 32.82 56.1859 32.6675 56.5109 32.3625C56.8409 32.0525 57.0259 31.505 57.0659 30.72C57.0859 30.365 57.0934 29.95 57.0884 29.475C57.0834 29 57.0684 28.5775 57.0434 28.2075H57.5234C57.5484 28.6375 57.5609 29.0925 57.5609 29.5725C57.5609 30.0475 57.5534 30.435 57.5384 30.735C57.4934 31.615 57.2784 32.2475 56.8934 32.6325C56.5134 33.0125 55.9084 33.2025 55.0784 33.2025C54.1734 33.2025 53.5184 33.0075 53.1134 32.6175C52.7084 32.2275 52.4884 31.5925 52.4534 30.7125C52.4334 30.1675 52.4159 29.62 52.4009 29.07C52.3909 28.52 52.3834 27.9775 52.3784 27.4425C52.3734 26.9075 52.3684 26.395 52.3634 25.905H58.9484C58.9684 25.365 58.9809 24.795 58.9859 24.195C58.9959 23.595 58.9984 23.0175 58.9934 22.4625C58.9934 21.9075 58.9909 21.425 58.9859 21.015C58.9809 20.6 58.9734 20.3175 58.9634 20.1675C58.9084 18.9075 58.5784 18.0075 57.9734 17.4675C57.3684 16.9275 56.3959 16.6575 55.0559 16.6575C53.7359 16.6575 52.7484 16.925 52.0934 17.46C51.4384 17.995 51.0834 18.9275 51.0284 20.2575C50.9984 20.9475 50.9759 21.725 50.9609 22.59C50.9459 23.45 50.9384 24.35 50.9384 25.29C50.9384 26.23 50.9459 27.1675 50.9609 28.1025C50.9759 29.0375 50.9984 29.9225 51.0284 30.7575C51.0784 32.0275 51.4134 32.9425 52.0334 33.5025C52.6534 34.0625 53.6684 34.3425 55.0784 34.3425C56.3884 34.3425 57.3484 34.07 57.9584 33.525C58.5684 32.98 58.9034 32.0675 58.9634 30.7875C58.9734 30.5775 58.9784 30.32 58.9784 30.015C58.9834 29.71 58.9834 29.3975 58.9784 29.0775C58.9734 28.7525 58.9609 28.4625 58.9409 28.2075H59.4134C59.4434 28.5925 59.4584 29.0425 59.4584 29.5575C59.4634 30.0725 59.4584 30.49 59.4434 30.81C59.3734 32.205 58.9984 33.2075 58.3184 33.8175C57.6434 34.4225 56.5634 34.725 55.0784 34.725ZM55.0784 33.9675C53.9084 33.9675 53.0309 33.73 52.4459 33.255C51.8659 32.78 51.5509 31.95 51.5009 30.765C51.4759 30.03 51.4559 29.22 51.4409 28.335C51.4259 27.45 51.4184 26.5375 51.4184 25.5975C51.4184 24.6525 51.4234 23.7275 51.4334 22.8225C51.4484 21.9125 51.4709 21.0675 51.5009 20.2875C51.5509 19.0875 51.8634 18.245 52.4384 17.76C53.0134 17.275 53.8859 17.0325 55.0559 17.0325C56.2259 17.0325 57.0784 17.2775 57.6134 17.7675C58.1484 18.2525 58.4409 19.055 58.4909 20.175C58.5009 20.36 58.5084 20.735 58.5134 21.3C58.5234 21.865 58.5259 22.5225 58.5209 23.2725C58.5209 24.0225 58.5084 24.77 58.4834 25.515H51.8909C51.8909 26.395 51.8984 27.295 51.9134 28.215C51.9284 29.13 51.9509 29.97 51.9809 30.735C52.0209 31.775 52.2884 32.51 52.7834 32.94C53.2784 33.365 54.0434 33.5775 55.0784 33.5775C56.0584 33.5775 56.7784 33.3625 57.2384 32.9325C57.7034 32.5025 57.9634 31.7775 58.0184 30.7575C58.0334 30.4475 58.0384 30.045 58.0334 29.55C58.0334 29.05 58.0209 28.6025 57.9959 28.2075H58.4684C58.4934 28.6125 58.5059 29.0625 58.5059 29.5575C58.5109 30.0475 58.5059 30.4525 58.4909 30.7725C58.4359 31.9125 58.1434 32.73 57.6134 33.225C57.0834 33.72 56.2384 33.9675 55.0784 33.9675ZM51.8909 25.125H58.0184C58.0384 24.46 58.0484 23.79 58.0484 23.115C58.0484 22.44 58.0459 21.84 58.0409 21.315C58.0359 20.785 58.0284 20.415 58.0184 20.205C57.9734 19.215 57.7209 18.505 57.2609 18.075C56.8059 17.64 56.0709 17.4225 55.0559 17.4225C54.0059 17.4225 53.2409 17.645 52.7609 18.09C52.2859 18.53 52.0259 19.27 51.9809 20.31C51.9509 21.04 51.9284 21.8275 51.9134 22.6725C51.9034 23.5125 51.8959 24.33 51.8909 25.125ZM52.3709 24.7275C52.3709 24.3575 52.3734 23.9225 52.3784 23.4225C52.3884 22.9225 52.3984 22.405 52.4084 21.87C52.4184 21.33 52.4334 20.8175 52.4534 20.3325C52.4884 19.4225 52.7084 18.7725 53.1134 18.3825C53.5234 17.9925 54.1709 17.7975 55.0559 17.7975C55.9059 17.7975 56.5234 17.985 56.9084 18.36C57.2934 18.735 57.5034 19.355 57.5384 20.22C57.5484 20.43 57.5559 20.7775 57.5609 21.2625C57.5709 21.7425 57.5734 22.2875 57.5684 22.8975C57.5684 23.5075 57.5609 24.1175 57.5459 24.7275H52.3709ZM52.8509 24.3375H57.0734C57.0884 23.7375 57.0959 23.1575 57.0959 22.5975C57.0959 22.0375 57.0934 21.5475 57.0884 21.1275C57.0834 20.7075 57.0759 20.415 57.0659 20.25C57.0359 19.545 56.8734 19.025 56.5784 18.69C56.2834 18.35 55.7759 18.18 55.0559 18.18C54.3109 18.18 53.7759 18.3525 53.4509 18.6975C53.1309 19.0425 52.9559 19.5925 52.9259 20.3475C52.9159 20.8175 52.9034 21.275 52.8884 21.72C52.8784 22.16 52.8709 22.595 52.8659 23.025C52.8609 23.455 52.8559 23.8925 52.8509 24.3375Z" fill="#003AA9"/>
<path d="M74.1631 34H69.6953V12.584H81.9707V16.3047H74.1631V21.8271H81.4287V25.5332H74.1631V34ZM86.1602 34V12.584H90.7012V34H86.1602ZM104.354 34H99.8125V16.3633H93.9971V12.584H110.169V16.3633H104.354V34ZM132.464 34H126.692L117.376 17.7988H117.244C117.283 18.4727 117.317 19.1514 117.347 19.835C117.376 20.5186 117.405 21.2021 117.435 21.8857C117.464 22.5596 117.493 23.2383 117.522 23.9219V34H113.465V12.584H119.192L128.494 28.624H128.597C128.577 27.96 128.553 27.3008 128.523 26.6465C128.494 25.9922 128.465 25.3379 128.436 24.6836C128.416 24.0293 128.396 23.375 128.377 22.7207V12.584H132.464V34ZM150.203 34H137.869V12.584H150.203V16.3047H142.41V21.0068H149.661V24.7275H142.41V30.25H150.203V34ZM167.327 28.0527C167.327 29.3223 167.02 30.4258 166.404 31.3633C165.789 32.3008 164.891 33.0234 163.709 33.5312C162.537 34.0391 161.111 34.293 159.432 34.293C158.689 34.293 157.962 34.2441 157.249 34.1465C156.546 34.0488 155.867 33.9072 155.213 33.7217C154.568 33.5264 153.953 33.2871 153.367 33.0039V28.7852C154.383 29.2344 155.438 29.6396 156.531 30.001C157.625 30.3623 158.709 30.543 159.783 30.543C160.525 30.543 161.121 30.4453 161.57 30.25C162.029 30.0547 162.361 29.7861 162.566 29.4443C162.771 29.1025 162.874 28.7119 162.874 28.2725C162.874 27.7354 162.693 27.2764 162.332 26.8955C161.971 26.5146 161.473 26.1582 160.838 25.8262C160.213 25.4941 159.505 25.1377 158.714 24.7568C158.216 24.5225 157.674 24.2393 157.088 23.9072C156.502 23.5654 155.945 23.1504 155.418 22.6621C154.891 22.1738 154.456 21.583 154.114 20.8896C153.782 20.1865 153.616 19.3467 153.616 18.3701C153.616 17.0908 153.909 15.9971 154.495 15.0889C155.081 14.1807 155.916 13.4873 157 13.0088C158.094 12.5205 159.383 12.2764 160.867 12.2764C161.98 12.2764 163.04 12.4082 164.046 12.6719C165.062 12.9258 166.121 13.2969 167.225 13.7852L165.76 17.3154C164.773 16.915 163.89 16.6074 163.108 16.3926C162.327 16.168 161.531 16.0557 160.721 16.0557C160.154 16.0557 159.671 16.1484 159.271 16.334C158.87 16.5098 158.567 16.7637 158.362 17.0957C158.157 17.418 158.055 17.7939 158.055 18.2236C158.055 18.7314 158.201 19.1611 158.494 19.5127C158.797 19.8545 159.246 20.1865 159.842 20.5088C160.447 20.8311 161.199 21.207 162.098 21.6367C163.191 22.1543 164.124 22.6963 164.896 23.2627C165.677 23.8193 166.277 24.4785 166.697 25.2402C167.117 25.9922 167.327 26.9297 167.327 28.0527ZM183.851 28.0527C183.851 29.3223 183.543 30.4258 182.928 31.3633C182.312 32.3008 181.414 33.0234 180.232 33.5312C179.061 34.0391 177.635 34.293 175.955 34.293C175.213 34.293 174.485 34.2441 173.772 34.1465C173.069 34.0488 172.391 33.9072 171.736 33.7217C171.092 33.5264 170.477 33.2871 169.891 33.0039V28.7852C170.906 29.2344 171.961 29.6396 173.055 30.001C174.148 30.3623 175.232 30.543 176.307 30.543C177.049 30.543 177.645 30.4453 178.094 30.25C178.553 30.0547 178.885 29.7861 179.09 29.4443C179.295 29.1025 179.397 28.7119 179.397 28.2725C179.397 27.7354 179.217 27.2764 178.855 26.8955C178.494 26.5146 177.996 26.1582 177.361 25.8262C176.736 25.4941 176.028 25.1377 175.237 24.7568C174.739 24.5225 174.197 24.2393 173.611 23.9072C173.025 23.5654 172.469 23.1504 171.941 22.6621C171.414 22.1738 170.979 21.583 170.638 20.8896C170.306 20.1865 170.14 19.3467 170.14 18.3701C170.14 17.0908 170.433 15.9971 171.019 15.0889C171.604 14.1807 172.439 13.4873 173.523 13.0088C174.617 12.5205 175.906 12.2764 177.391 12.2764C178.504 12.2764 179.563 12.4082 180.569 12.6719C181.585 12.9258 182.645 13.2969 183.748 13.7852L182.283 17.3154C181.297 16.915 180.413 16.6074 179.632 16.3926C178.851 16.168 178.055 16.0557 177.244 16.0557C176.678 16.0557 176.194 16.1484 175.794 16.334C175.394 16.5098 175.091 16.7637 174.886 17.0957C174.681 17.418 174.578 17.7939 174.578 18.2236C174.578 18.7314 174.725 19.1611 175.018 19.5127C175.32 19.8545 175.77 20.1865 176.365 20.5088C176.971 20.8311 177.723 21.207 178.621 21.6367C179.715 22.1543 180.647 22.6963 181.419 23.2627C182.2 23.8193 182.801 24.4785 183.221 25.2402C183.641 25.9922 183.851 26.9297 183.851 28.0527Z" fill="white"/>
</svg>
